<svg width="160" height="55" viewBox="0 0 160 55" fill="none" xmlns="http://www.w3.org/2000/svg">
<g clip-path="url(#clip0_152_2101)">
<path d="M152.932 -0.118286C152.688 -0.118286 152.493 0.0806938 152.493 0.321667V8.41303C152.493 8.48509 152.51 8.55608 152.544 8.61965C152.579 8.68321 152.628 8.7374 152.688 8.77742C152.748 8.81744 152.817 8.84206 152.889 8.84907C152.961 8.85608 153.034 8.84526 153.101 8.8176L153.185 8.76899C153.185 8.76899 159.283 5.2804 159.643 5.07037C159.873 4.93773 159.998 4.65918 160 4.3762C160.002 4.08659 159.88 3.80139 159.647 3.66874C159.359 3.49852 153.185 -0.0364823 153.185 -0.0364823C153.185 -0.0364823 152.99 -0.118286 152.932 -0.118286ZM4.83107 5.64516C3.92122 5.64516 3.04244 5.65401 2.00832 6.36146L0 7.77192C0 7.77192 14.3423 31.8648 14.7351 32.4396C14.8527 32.6076 15.068 32.7624 15.3831 32.7624C15.6982 32.7624 15.9179 32.6076 16.0311 32.4396C16.5126 31.7388 30.7994 7.77192 30.7994 7.77192L28.6291 6.36146C28.6291 6.36146 27.595 5.654 25.9395 5.64516C23.5517 5.62968 22.2158 7.73654 20.6446 10.3806L15.3853 19.5509L10.1592 10.164C8.70347 7.45358 7.21886 5.64516 4.83107 5.64516ZM55.4652 5.94805C48.6768 5.94805 44.2918 9.44104 44.2918 14.8464V14.9193C44.294 19.8803 49.9551 21.8655 55.3365 22.8803C58.1481 23.4109 59.9567 23.6408 59.9833 24.9341C60.0055 25.9952 58.248 26.3666 56.8011 26.3998C54.9548 26.444 50.5764 26.0726 47.2677 23.5479L47.2188 23.5081L42.8427 28.7719L42.8915 28.8162C46.1514 31.6725 50.9359 33.2465 56.3661 33.2465C63.5362 33.2465 67.9678 30.0365 67.9678 24.5251V24.4499C67.9678 18.7815 62.3689 17.2738 56.5304 16.1971C53.6677 15.6533 52.4028 14.7469 52.4028 14.1301V14.0571C52.4028 13.4094 53.3792 12.6643 55.0924 12.6643C57.8175 12.6643 61.0397 13.4779 63.281 15.1094L63.3343 15.1493L67.3775 9.5936L67.3287 9.55603C64.2152 7.09324 60.4449 5.94805 55.4652 5.94805ZM32.7256 6.07627V32.3357H40.9342V11.1875C40.9354 10.5175 40.8041 9.85378 40.5478 9.23427C40.2915 8.61477 39.9152 8.05161 39.4404 7.57698C38.9656 7.10235 38.4017 6.72555 37.7807 6.46806C37.1597 6.21056 36.4939 6.07743 35.8213 6.07627H32.7256ZM83.0868 6.17575C75.6882 6.17575 69.6921 11.9945 69.6921 19.3917C69.6921 27.4035 74.7517 32.6165 81.3248 32.9724C84.4383 33.1404 87.3165 31.8228 88.9276 30.3195V32.8486H96.4793L96.4571 19.1021C96.2086 11.9259 90.3234 6.17575 83.0868 6.17575ZM142.211 6.17575C134.813 6.17575 128.817 12.1735 128.817 19.573C128.817 26.9746 134.813 32.9768 142.211 32.9768C149.608 32.9768 155.608 26.9746 155.608 19.5752C155.608 12.1736 149.608 6.17575 142.211 6.17575ZM113.025 6.26198C105.642 6.26198 99.6571 12.2487 99.6571 19.6371V32.8795H107.637V19.814C107.637 16.6305 110.311 13.9952 113.485 14.2649C114.832 14.3829 116.086 15.0002 116.999 15.995C117.911 16.9897 118.416 18.2894 118.413 19.6371V32.8795H126.396V19.6371C126.396 12.2487 120.411 6.26198 113.025 6.26198ZM142.211 14.1765C143.646 14.1794 145.02 14.7498 146.033 15.7622C147.045 16.7746 147.613 18.1461 147.61 19.5752C147.61 22.5575 145.192 24.9761 142.211 24.9761C140.777 24.9726 139.402 24.4016 138.39 23.3888C137.378 22.376 136.811 21.0043 136.814 19.5752C136.813 18.8677 136.951 18.1668 137.222 17.5126C137.492 16.8584 137.889 16.2636 138.391 15.7623C138.892 15.261 139.487 14.8629 140.143 14.5908C140.798 14.3187 141.501 14.178 142.211 14.1765ZM82.7961 14.2318C84.23 14.2347 85.6041 14.8048 86.6161 15.8168C87.6282 16.8288 88.1954 18.1998 88.193 19.6283C88.1948 20.3361 88.0566 21.0372 87.7863 21.6918C87.516 22.3464 87.119 22.9416 86.6178 23.4433C86.1167 23.945 85.5212 24.3435 84.8655 24.616C84.2098 24.8885 83.5066 25.0296 82.7961 25.0314C82.0854 25.0299 81.382 24.889 80.726 24.6166C80.07 24.3443 79.4743 23.9459 78.9729 23.4441C78.4715 22.9423 78.0743 22.3471 77.8039 21.6924C77.5335 21.0376 77.3952 20.3362 77.3969 19.6283C77.3958 18.9207 77.5345 18.2199 77.8052 17.5658C78.0759 16.9117 78.4733 16.3171 78.9746 15.816C79.476 15.3149 80.0715 14.9171 80.7272 14.6453C81.3829 14.3734 82.0859 14.2329 82.7961 14.2318ZM142.211 34.7189C136.661 34.7189 132.159 39.2222 132.159 44.7757C132.159 50.3247 136.661 54.828 142.211 54.828C147.764 54.828 152.264 50.3269 152.264 44.7757C152.264 39.2222 147.764 34.7189 142.211 34.7189Z" fill="#00B0E1"/>
</g>
<defs>
<clipPath id="clip0_152_2101">
<rect width="160" height="55" fill="white"/>
</clipPath>
</defs>
</svg>
