<svg width="20" height="20" viewBox="0 0 20 20" fill="none" xmlns="http://www.w3.org/2000/svg">
<path fill-rule="evenodd" clip-rule="evenodd" d="M17.9793 6.90467L18.6635 7.58882C19.2052 8.12096 19.4998 8.84312 19.4998 9.6033C19.5093 10.3635 19.2147 11.0866 18.6825 11.6273C18.6762 11.6342 18.6699 11.6404 18.6635 11.6465C18.6604 11.6495 18.6572 11.6526 18.654 11.6558L17.9793 12.3304C17.7132 12.5965 17.5611 12.9576 17.5611 13.3386V14.3164C17.5611 15.8937 16.2781 17.1775 14.7006 17.1775H13.7217C13.3416 17.1775 12.9805 17.3286 12.7144 17.5946L12.0301 18.2788C11.4694 18.8404 10.7376 19.115 10.0058 19.115C9.27405 19.115 8.54236 18.8404 7.98162 18.2893L7.28786 17.5946C7.02177 17.3286 6.66063 17.1775 6.2805 17.1775H5.30164C3.72406 17.1775 2.44109 15.8937 2.44109 14.3164V13.3386C2.44109 12.9576 2.28904 12.5965 2.02295 12.3209L1.33869 11.6463C0.22679 10.5355 0.21729 8.71959 1.32919 7.59928L2.02295 6.90467C2.28904 6.6386 2.44109 6.27752 2.44109 5.88793V4.91871C2.44109 3.34134 3.72406 2.0595 5.30164 2.0595H6.2805C6.66063 2.0595 7.02177 1.90651 7.28786 1.64045L7.97211 0.956294C9.08405 -0.164015 10.8992 -0.164015 12.0206 0.947742L12.7144 1.64045C12.9805 1.90651 13.3416 2.0595 13.7217 2.0595H14.7006C16.2781 2.0595 17.5611 3.34134 17.5611 4.91871V5.89838C17.5611 6.27752 17.7132 6.6386 17.9793 6.90467Z" fill="#00B0E1"/>
<path d="M7.5 12.25L9.52913 6.56844C9.68714 6.126 10.3129 6.126 10.4709 6.56844L12.5 12.25" stroke="white" stroke-width="1.5" stroke-linecap="round"/>
<path d="M8.5 10.25H11.5" stroke="white" stroke-width="1.5" stroke-linecap="round"/>
</svg>
