<svg width="20" height="20" viewBox="0 0 20 20" fill="none" xmlns="http://www.w3.org/2000/svg">
<path d="M17.9503 9.525C17.9716 9.35053 17.956 9.17351 17.9043 9.0055C17.8526 8.8375 17.766 8.68229 17.6503 8.55C17.5331 8.41666 17.389 8.3098 17.2273 8.23652C17.0657 8.16324 16.8903 8.12522 16.7128 8.125H3.28778C3.1103 8.12522 2.9349 8.16324 2.77325 8.23652C2.6116 8.3098 2.46742 8.41666 2.35028 8.55C2.23453 8.68229 2.14799 8.8375 2.09629 9.0055C2.0446 9.17351 2.02892 9.35053 2.05028 9.525L2.98778 17.025C3.02462 17.3299 3.17242 17.6105 3.40296 17.8134C3.63351 18.0163 3.93068 18.1272 4.23778 18.125H15.7878C16.0949 18.1272 16.392 18.0163 16.6226 17.8134C16.8531 17.6105 17.0009 17.3299 17.0378 17.025L17.9503 9.525Z" fill="white" stroke="#222222" stroke-width="1.6" stroke-linecap="round" stroke-linejoin="round"/>
<path d="M4.375 8.125V7.5C4.375 6.00816 4.96763 4.57742 6.02252 3.52252C7.07742 2.46763 8.50816 1.875 10 1.875C11.4918 1.875 12.9226 2.46763 13.9775 3.52252C15.0324 4.57742 15.625 6.00816 15.625 7.5V8.125" stroke="#222222" stroke-width="1.6" stroke-linecap="round" stroke-linejoin="round"/>
<path d="M7.5 11.875V14.375" stroke="#222222" stroke-width="1.6" stroke-linecap="round" stroke-linejoin="round"/>
<path d="M12.5 11.875V14.375" stroke="#222222" stroke-width="1.6" stroke-linecap="round" stroke-linejoin="round"/>
</svg>
